<svg width="130" height="30" xmlns="http://www.w3.org/2000/svg" class="icon" data-v-8bb8d4b6=""><path fill-rule="evenodd" clip-rule="evenodd" d="M98 23.994h4.068V6H98v17.994ZM108 23.983V6h17.14v3.05h-13.072v3.41h12.709v3.422h-12.709v5.052h13.072v3.05H108ZM18.955 6.096v6.319H8.068V6.096H4v18.022h4.068V15.86l10.887.003v8.255h4.068V6.096h-4.068ZM80.243 24.105h3.277L92.642 6.11h-4.333l-6.521 13.196L75.379 6.11h-4.33l9.194 17.995ZM59.914 21.067V6.098h-4.069v14.969h-.004v3.049h15.745v-3.05H59.914ZM45.937 24.093h4.332L41.073 6.1h-3.276l-9.121 17.994h2.063v.023h13.265l-1.592-3.05h-7.909l5.026-10.168 6.408 13.195Z"></path></svg>